<svg xmlns="http://www.w3.org/2000/svg" width="35" height="32" viewBox="0 0 35 32">
  <g id="diagnostic_icon" data-name="diagnostic icon" transform="translate(0)">
    <path id="패스_2557" data-name="패스 2557" d="M35.163,319.194H1.457a.646.646,0,0,0-.646.65V344.4a.648.648,0,0,0,.646.651H13.738v4.633H11.532v1.505H25.088v-1.505h-2.2v-4.633H35.163a.651.651,0,0,0,.648-.651v-24.56a.649.649,0,0,0-.648-.65m-1.278,20.982H2.736v-18.7h31.15Z" transform="translate(-0.811 -319.194)" fill="#b6ccc1"/>
    <path id="패스_2558" data-name="패스 2558" d="M23.956,340.787a1.809,1.809,0,0,1-1.121-.388l-6.87-5.415a1.778,1.778,0,0,1-.289-2.512,1.813,1.813,0,0,1,2.534-.287l5.608,4.421,9.419-9.361a1.815,1.815,0,0,1,2.55,0,1.779,1.779,0,0,1,0,2.529l-10.557,10.49a1.805,1.805,0,0,1-1.277.524" transform="translate(-8.213 -323.044)" fill="#b6ccc1"/>
  </g>
</svg>
